HIERARCHY
ROOT Hips
{
  OFFSET 90.7885 88.945 -76.2838
  CHANNELS 6 Xposition Yposition Zposition Zrotation Xrotation Yrotation
  JOINT LeftUpLeg
  {
    OFFSET 8.64259 1.95398 -2.38835
    CHANNELS 3 Zrotation Xrotation Yrotation
    JOINT LeftLeg
    {
      OFFSET 43.7702 0 0
      CHANNELS 3 Zrotation Xrotation Yrotation
      JOINT LeftFoot
      {
        OFFSET 40.6238 0 0
        CHANNELS 3 Zrotation Xrotation Yrotation
        JOINT LeftToeBase
        {
          OFFSET 12.7242 0 0
          CHANNELS 3 Zrotation Xrotation Yrotation
          End Site
          {
            OFFSET 0 0 0
          }
        }
      }
    }
  }
  JOINT RightUpLeg
  {
    OFFSET -8.2249 1.95398 -2.59336
    CHANNELS 3 Zrotation Xrotation Yrotation
    JOINT RightLeg
    {
      OFFSET 43.5653 0 0
      CHANNELS 3 Zrotation Xrotation Yrotation
      JOINT RightFoot
      {
        OFFSET 40.6238 0 0
        CHANNELS 3 Zrotation Xrotation Yrotation
        JOINT RightToeBase
        {
          OFFSET 12.7242 0 0
          CHANNELS 3 Zrotation Xrotation Yrotation
          End Site
          {
            OFFSET 0 0 0
          }
        }
      }
    }
  }
  JOINT Spine
  {
    OFFSET 0.165834 0.87714 6.61349
    CHANNELS 3 Zrotation Xrotation Yrotation
    JOINT Spine1
    {
      OFFSET 7.38963 1.71661e-005 0
      CHANNELS 3 Zrotation Xrotation Yrotation
      JOINT Spine2
      {
        OFFSET 11.9445 1.14441e-005 0
        CHANNELS 3 Zrotation Xrotation Yrotation
        JOINT Spine3
        {
          OFFSET 14.7254 4.19617e-005 0
          CHANNELS 3 Zrotation Xrotation Yrotation
          JOINT Spine4
          {
            OFFSET 10.9679 0 0
            CHANNELS 3 Zrotation Xrotation Yrotation
            JOINT RightShoulder
            {
              OFFSET 2.46616 -1.6653 3.69651
              CHANNELS 3 Zrotation Xrotation Yrotation
              JOINT RightArm
              {
                OFFSET 13.0012 0 0
                CHANNELS 3 Zrotation Xrotation Yrotation
                JOINT RightForeArm
                {
                  OFFSET 28.7848 1.52588e-005 0
                  CHANNELS 3 Zrotation Xrotation Yrotation
                  JOINT RightHand
                  {
                    OFFSET 26.5688 1.52588e-005 0
                    CHANNELS 3 Zrotation Xrotation Yrotation
                    End Site
                    {
                      OFFSET 0 0 0
                    }
                  }
                }
              }
            }
            JOINT LeftShoulder
            {
              OFFSET 2.38034 -1.29275 -3.7523
              CHANNELS 3 Zrotation Xrotation Yrotation
              JOINT LeftArm
              {
                OFFSET 16.3182 6.10352e-005 0
                CHANNELS 3 Zrotation Xrotation Yrotation
                JOINT LeftForeArm
                {
                  OFFSET 27.0901 0 0
                  CHANNELS 3 Zrotation Xrotation Yrotation
                  JOINT LeftHand
                  {
                    OFFSET 24.5451 1.52588e-005 0
                    CHANNELS 3 Zrotation Xrotation Yrotation
                    End Site
                    {
                      OFFSET 0 0 0
                    }
                  }
                }
              }
            }
            JOINT Neck
            {
              OFFSET 5.0226 -0.0266342 0
              CHANNELS 3 Zrotation Xrotation Yrotation
              JOINT Head
              {
                OFFSET 6.69363 2.86102e-005 0
                CHANNELS 3 Zrotation Xrotation Yrotation
                End Site
                {
                  OFFSET 0 0 0
                }
              }
            }
          }
        }
      }
    }
  }
}
MOTION
Frames:	6
Frame Time:	0.0416667
29.3889 97.8776 18.4252 18.3976 -70.6682 14.7297 179.203 29.8492 89.2201 -12.8549 11.2505 -0.402953 65.9743 3.03857 -4.36999 12.2204 -2.71376 5.45651 173.236 27.5598 89.0612 -11.6992 -14.342 -0.432488 66.7083 -3.29614 -6.99883 16.2352 -0.395965 3.09049 0.408186 8.88069 -90.8658 9.11261 0.42707 -1.74489 -2.55947 0.349871 -1.762 -25.0875 0.931677 -1.53597 -5.07486 0.931674 -1.53597 85.7265 -28.2222 -116.022 18.5524 -8.73713 -29.7875 -0.23781 -26.175 -18.4864 -24.2025 -0.585754 -8.97812 -93.8454 -46.6559 72.0542 -3.07808 28.062 -63.3491 -3.08426 13.3255 -8.12461 0.103042 -0.162682 -7.70857 18.7712 24.6532 8.73809 -11.0923 20.5913 11.3686 
29.6461 97.9651 18.4799 21.1579 -70.9069 17.6111 178.852 28.8194 88.931 -11.8104 11.8818 0.0549839 65.3457 2.6858 -4.52014 12.3119 -3.21372 6.00127 173.006 26.8511 88.8347 -11.5823 -13.4871 -0.33417 66.7054 -3.29809 -6.49507 16.452 -0.211206 2.72867 0.396515 8.97238 -90.9607 8.92834 0.362943 -1.92643 -2.74401 0.277834 -1.94052 -25.2699 0.925049 -1.72839 -5.25727 0.925055 -1.72839 85.6618 -27.7751 -116.386 19.2244 -7.98235 -27.7037 -0.0429855 -25.3153 -17.9576 -26.1492 -0.784354 -7.43579 -93.6528 -45.948 72.1407 -3.58065 27.3154 -60.7636 -3.85087 13.3128 -5.55412 0.291008 -0.164571 -7.55417 15.8356 23.2308 5.38582 -11.0643 20.3175 11.9916 
29.8166 98.0039 18.6672 25.4979 -71.1247 22.0268 178.726 27.9266 88.5944 -11.5199 12.9546 0.303474 65.2244 2.62076 -4.55349 12.2173 -2.95708 5.72508 172.819 25.9823 88.5923 -11.8575 -12.4604 -0.339357 66.9787 -3.36425 -6.49821 16.6996 -0.101372 2.49631 0.370916 8.93981 -91.0552 8.99202 0.269188 -2.10758 -2.68061 0.176181 -2.11739 -25.204 0.890038 -1.92937 -5.19141 0.890041 -1.92937 85.6238 -27.8868 -116.402 18.6953 -9.24895 -25.2696 2.40407 -23.6044 -15.78 -26.1776 -0.445689 -8.67322 -93.7808 -47.1071 72.2856 -3.62204 26.4192 -58.1565 -4.8925 13.6913 -2.40968 -0.0919217 -0.12565 -6.24651 12.8183 21.1962 2.20504 -10.2765 19.3703 11.8546 
29.9115 98.1072 18.9843 28.8498 -71.9074 25.6913 178.988 26.9213 88.6682 -12.1879 14.2039 0.283616 65.5067 2.72998 -4.17322 11.9607 -3.13516 5.93729 172.788 24.3009 88.7338 -11.6621 -11.7916 -0.420674 66.8848 -3.2997 -5.92076 17.0573 0.611637 1.14491 0.393525 8.93423 -91.1327 9.00262 0.279597 -2.26216 -2.67028 0.179796 -2.27227 -25.1919 0.946389 -2.0737 -5.17922 0.946406 -2.07368 85.6876 -28.5248 -115.941 18.8455 -10.2019 -23.3518 3.51248 -24.3819 -14.1121 -27.3757 -0.816082 -6.94892 -93.5585 -47.5515 72.7522 -4.322 25.4495 -55.5156 -4.64891 14.4928 -1.353 -0.763482 -0.0991995 -5.05238 11.2269 19.7176 -0.100181 -9.63952 18.5441 12.1835 
30.0381 98.2136 19.3576 34.4782 -72.2264 31.6535 179.303 26.0348 88.6909 -12.9812 15.6726 0.20304 65.8392 2.92494 -4.38954 11.715 -2.69715 5.47509 172.63 22.5077 88.7643 -11.3667 -10.4618 -0.411107 67.0382 -3.36707 -5.72445 17.254 0.960565 0.477995 0.37809 8.89135 -91.2623 9.08644 0.190089 -2.51312 -2.58693 0.079338 -2.51906 -25.1047 0.936377 -2.33999 -5.09204 0.936384 -2.34 86.1826 -28.9557 -114.749 19.5459 -10.6903 -21.8329 3.78871 -24.4614 -13.3681 -25.8488 -0.688954 -7.68595 -93.5118 -48.0597 72.9672 -3.91042 25.4326 -54.3167 -3.95742 14.0448 -2.76719 0.922468 -0.128583 -5.69322 9.76582 18.634 -0.890569 -9.1316 17.7794 11.352 
30.0809 98.2277 19.8196 43.3587 -72.4822 40.7749 -179.819 25.0576 88.715 -14.8531 18.7731 -0.427242 66.5436 3.22748 -3.82344 11.3392 -2.44393 5.22698 172.274 20.1826 88.6684 -11.648 -8.64702 -0.285867 67.7733 -3.58825 -5.43606 17.3796 1.1897 0.0364463 0.367129 8.87212 -91.371 9.12289 0.119221 -2.72367 -2.5509 -0.000732351 -2.72628 -25.0652 0.932015 -2.56215 -5.05254 0.932009 -2.56213 85.3115 -29.2316 -116.307 20.321 -9.91156 -18.2224 2.97095 -25.513 -14.2757 -24.6212 -0.75382 -7.74134 -93.4691 -47.7093 72.9331 -4.51946 26.1035 -54.611 -3.53527 14.0762 -3.97966 0.730662 -0.1343 -5.998 8.88353 17.3154 -2.44386 -8.50289 16.9691 9.67231 
